<?xml version="1.0" encoding="utf-8"?>
<svg id="master-artboard" viewBox="0 0 1400 980" version="1.1" xmlns="http://www.w3.org/2000/svg" x="0px" y="0px" style="enable-background:new 0 0 1400 980;" width="1400px" height="980px"><rect id="ee-background" x="0" y="0" width="1400" height="980" style="fill: white; fill-opacity: 0; pointer-events: none;"/><g transform="matrix(57.647055233226105, 0, 0, 57.647055233226105, 296.47061668654953, 0.0000033191322472703177)"><title>Loupe</title><desc>Created with Sketch.</desc><g id="Loupe" stroke="none" stroke-width="1" fill="none" fill-rule="evenodd">
        <g id="Group-3" transform="translate(7.000000, 9.000000) rotate(25.000000) translate(-7.000000, -9.000000) translate(3.000000, 2.000000)" stroke="#212629">
            <path d="M 8 4 A 4 4 0 0 1 4 8 A 4 4 0 0 1 0 4 A 4 4 0 0 1 4 0 A 4 4 0 0 1 8 4 Z" id="Oval-2" transform="matrix(0.9999999741586065, 2.2654391751419922e-8, -2.2654391751419922e-8, 0.9999999741586065, 1.3318134151063532e-7, -7.007605873354805e-8)" style="stroke: rgb(255, 255, 255);"/>
            <path d="M3.5,8.5 L3.5,13 C3.5,13.2761424 3.72385763,13.5 4,13.5 C4.27614237,13.5 4.5,13.2761424 4.5,13 L4.5,8.5 L3.5,8.5 Z" id="Rectangle-2" style="stroke: rgb(255, 255, 255);"/>
        </g>
    </g></g><path d="M 771.4620361328125 243.73477172851562 L 772.7830200195312 492.99444580078125" style="fill: rgb(255, 255, 255); fill-opacity: 1; stroke: rgb(255, 255, 255); stroke-opacity: 1; stroke-width: 10; paint-order: fill;" transform="matrix(4.858444213867187, 0.13379615545272824, -0.027385504916310307, 0.9944341778755187, -2967.4555664062495, -107.81822967529295)"/><path d="M 703.916748046875 415.66815185546875" style="fill: rgb(33, 38, 41); fill-opacity: 1; stroke: rgb(0, 0, 0); stroke-opacity: 1; stroke-width: 10; paint-order: fill;"/><path d="M 875.8501586914062 358.3570251464844" style="fill: rgb(33, 38, 41); fill-opacity: 1; stroke: rgb(0, 0, 0); stroke-opacity: 1; stroke-width: 10; paint-order: fill;" transform="matrix(1, 0, 0, 1, -56.07933583399631, -6.140478134155273)"/><path d="M 771.4620361328125 243.73477172851562 L 772.7830200195312 492.99444580078125" style="fill: rgb(255, 255, 255); fill-opacity: 1; stroke: rgb(255, 255, 255); stroke-opacity: 1; stroke-width: 10; paint-order: fill;" transform="matrix(-0.16998927295207977, 4.857318878173829, -0.994209349155426, -0.03479455411434174, 1270.9887695312498, -3377.275634765626)"/></svg>